<?xml version="1.0" standalone="no"?>
<!DOCTYPE svg PUBLIC "-//W3C//DTD SVG 20010904//EN"
 "http://www.w3.org/TR/2001/REC-SVG-20010904/DTD/svg10.dtd">
<svg version="1.0" xmlns="http://www.w3.org/2000/svg"
 width="2000.000000pt" height="373.000000pt" viewBox="0 0 2000.000000 373.000000"
 preserveAspectRatio="xMidYMid meet">
<metadata>
Created by potrace 1.16, written by Peter Selinger 2001-2019
</metadata>
<g transform="translate(0.000000,373.000000) scale(0.100000,-0.100000)"
fill="#000000" stroke="none">
<path d="M4469 3707 c-19 -12 -45 -43 -59 -67 l-25 -45 0 -1730 0 -1730 25
-45 c34 -61 80 -90 142 -90 83 0 143 49 167 135 15 56 15 3404 0 3460 -14 50
-51 100 -89 120 -45 23 -121 19 -161 -8z"/>
<path d="M5600 3720 c0 -6 203 -355 450 -776 l450 -765 0 -590 0 -589 185 0
185 0 0 596 0 597 473 760 c259 418 474 764 475 769 2 4 -81 8 -185 8 l-188 0
-277 -513 c-153 -281 -312 -585 -355 -675 -53 -110 -83 -161 -92 -160 -8 2
-58 97 -112 213 -53 116 -207 417 -342 670 l-246 460 -210 3 c-144 2 -211 -1
-211 -8z"/>
<path d="M8586 2999 c-89 -12 -208 -43 -304 -78 -104 -38 -232 -102 -232 -115
0 -6 16 -71 37 -144 44 -161 48 -164 144 -99 36 24 101 59 145 77 328 137 584
91 697 -125 30 -57 32 -66 35 -197 l4 -138 -174 0 c-340 0 -581 -62 -755 -194
-110 -83 -195 -215 -222 -344 -16 -76 -14 -228 4 -297 36 -138 136 -265 255
-323 251 -123 518 -57 824 204 37 31 68 55 70 53 1 -2 9 -26 16 -54 20 -76 58
-153 96 -191 57 -57 89 -68 184 -68 98 0 162 20 277 86 l73 42 0 106 0 107
-52 -18 c-110 -38 -175 -20 -214 58 -18 36 -19 77 -24 643 -5 601 -5 605 -28
670 -62 172 -191 281 -387 325 -84 19 -369 28 -469 14z m524 -1253 l0 -215
-77 -67 c-164 -143 -259 -187 -403 -188 -88 -1 -99 1 -150 30 -102 58 -157
174 -147 313 8 110 22 147 77 201 58 56 140 92 261 114 110 20 138 22 302 24
l137 2 0 -214z"/>
<path d="M12651 2994 c-183 -29 -517 -157 -507 -193 3 -9 19 -70 37 -136 18
-66 36 -126 42 -132 15 -20 35 -16 83 18 68 46 219 115 309 140 105 30 266 32
341 6 74 -26 138 -71 177 -125 57 -79 69 -123 75 -264 l5 -128 -169 0 c-193 0
-309 -12 -441 -45 -338 -86 -535 -291 -559 -583 -31 -379 273 -655 638 -577
141 30 285 107 434 232 76 64 89 72 95 56 4 -10 19 -52 34 -94 56 -164 167
-230 330 -200 60 11 201 73 256 112 29 20 29 21 29 124 l0 103 -55 -19 c-106
-37 -172 -20 -213 54 -15 29 -18 89 -23 632 -5 513 -8 608 -22 654 -56 188
-175 298 -382 352 -108 28 -377 35 -514 13z m559 -1242 l0 -208 -52 -50 c-237
-230 -478 -288 -631 -154 -65 58 -100 141 -101 244 -1 106 17 165 67 222 91
104 265 150 580 153 l137 1 0 -208z"/>
<path d="M14833 2995 c-258 -47 -462 -191 -554 -390 -62 -136 -66 -306 -9
-421 74 -150 185 -217 562 -339 171 -55 253 -87 295 -114 102 -66 140 -131
130 -222 -16 -134 -121 -220 -304 -249 -144 -23 -383 26 -590 121 -65 30 -85
35 -98 26 -17 -14 -99 -308 -87 -318 4 -4 51 -21 105 -38 229 -73 453 -102
629 -83 292 32 534 179 633 387 46 97 59 164 53 282 -6 113 -31 179 -99 256
-85 98 -185 146 -500 242 -197 61 -302 106 -361 154 -97 81 -105 231 -17 321
96 98 248 129 472 95 110 -17 189 -37 263 -70 82 -36 90 -27 136 150 21 81 36
150 34 152 -2 3 -37 13 -78 23 -180 46 -464 63 -615 35z"/>
<path d="M16686 2999 c-141 -19 -306 -70 -453 -140 -51 -24 -83 -46 -83 -55 0
-8 11 -54 24 -102 14 -48 29 -106 35 -129 16 -59 39 -63 107 -18 128 85 307
149 451 162 186 16 342 -66 412 -216 23 -50 26 -71 29 -188 l4 -133 -174 0
c-341 -1 -577 -61 -755 -193 -107 -79 -188 -202 -218 -329 -19 -81 -19 -238 0
-311 36 -139 134 -266 251 -325 67 -34 187 -62 261 -62 150 1 344 86 521 230
63 50 115 90 116 88 2 -2 11 -34 20 -71 25 -92 82 -178 143 -214 43 -25 57
-28 133 -27 96 0 175 26 287 92 l63 36 0 107 0 106 -52 -18 c-74 -26 -138 -24
-173 3 -61 47 -59 36 -66 698 -4 456 -8 615 -18 645 -60 183 -182 293 -381
345 -98 25 -364 36 -484 19z m524 -1253 l0 -214 -85 -73 c-161 -139 -292 -196
-426 -187 -120 9 -208 77 -251 196 -22 59 -23 181 -3 248 48 164 243 239 628
243 l137 1 0 -214z"/>
<path d="M19225 2995 c-169 -37 -358 -139 -520 -281 -50 -43 -80 -63 -84 -55
-4 6 -18 79 -31 161 l-24 150 -143 0 -143 0 0 -985 0 -985 180 0 180 0 0 704
0 704 58 50 c146 126 285 209 393 232 91 20 222 9 296 -24 69 -32 138 -97 173
-166 47 -93 50 -130 50 -837 l0 -663 180 0 180 0 0 703 c-1 753 -2 782 -53
919 -70 192 -218 330 -399 373 -77 18 -212 18 -293 0z"/>
<path d="M9892 2961 c2 -4 167 -447 368 -984 l364 -976 32 -3 31 -3 -203 -490
c-112 -270 -204 -493 -204 -498 0 -4 79 -6 176 -5 l176 3 552 1480 553 1480
-185 3 c-102 1 -187 1 -189 -1 -14 -14 -439 -1358 -474 -1499 -33 -134 -47
-178 -59 -178 -11 0 -25 40 -54 163 -31 132 -209 700 -442 1410 l-36 107 -205
0 c-112 0 -203 -4 -201 -9z"/>
</g>
</svg>
